<?xml version="1.0" standalone="no"?>
<!DOCTYPE svg PUBLIC "-//W3C//DTD SVG 1.1//EN" "http://www.w3.org/Graphics/SVG/1.1/DTD/svg11.dtd">

<svg width="582" height="98" viewBox="0 0 582 98" preserveAspectRatio="none" version="1.1" xmlns="http://www.w3.org/2000/svg">
	<ellipse stroke="#004CB2" stroke-width="2" fill="none" cx="107.5" cy="65.5" rx="30" ry="30"/>
	<text x="100.5" y="71.5" font-family="Times New Roman" font-size="20">A</text>
	<ellipse stroke="#004CB2" stroke-width="2" fill="none" cx="107.5" cy="65.5" rx="21.515" ry="21.515"/>
	<ellipse stroke="#004CB2" stroke-width="2" fill="none" cx="308.5" cy="65.5" rx="30" ry="30"/>
	<text x="301.5" y="71.5" font-family="Times New Roman" font-size="20">B</text>
	<ellipse stroke="#004CB2" stroke-width="2" fill="none" cx="475.5" cy="65.5" rx="30" ry="30"/>
	<text x="468.5" y="71.5" font-family="Times New Roman" font-size="20">C</text>
	<polygon stroke="#004CB2" stroke-width="2" points="308.5,2.5 308.5,35.5"/>
	<polygon fill="#000000" stroke-width="2" points="308.5,35.5 315.571,24.186 301.429,24.186"/>
	<polygon stroke="#004CB2" stroke-width="2" points="338.5,65.5 445.5,65.5"/>
	<polygon fill="#000000" stroke-width="2" points="445.5,65.5 434.186,58.429 434.186,72.571"/>
	<text x="387.5" y="86.5" font-family="Times New Roman" font-size="20">1</text>
	<polygon stroke="#004CB2" stroke-width="2" points="278.5,65.5 137.5,65.5"/>
	<polygon fill="#000000" stroke-width="2" points="137.5,65.5 148.814,72.571 148.814,58.429"/>
	<text x="203.5" y="56.5" font-family="Times New Roman" font-size="20">0</text>
	<path stroke="blue" stroke-width="2" fill="none" d="M 497.808,45.617 A 22.5,22.5 0 1 1 504.851,71.113"/>
	<text x="548.5" y="48.5" font-family="Times New Roman" font-size="20">0,1</text>
	<polygon fill="#000000" stroke-width="2" points="504.851,71.113 512.961,81.706 517.927,68.465"/>
	<path stroke="blue" stroke-width="2" fill="none" d="M 77.714,67.91 A 22.5,22.5 0 1 1 87.469,43.324"/>
	<text x="12.5" y="37.5" font-family="Times New Roman" font-size="20">0,1</text>
	<polygon fill="#000000" stroke-width="2" points="87.469,43.324 87.387,29.983 75.441,37.552"/>
</svg>
