<?xml version="1.0" standalone="no"?>
<!DOCTYPE svg PUBLIC "-//W3C//DTD SVG 1.1//EN" "http://www.w3.org/Graphics/SVG/1.1/DTD/svg11.dtd">

<svg width="593" height="300" viewBox="0 0 593 300" preserveAspectRatio="none" version="1.1" xmlns="http://www.w3.org/2000/svg">
	<ellipse stroke="#004CB2" stroke-width="2" fill="none" cx="74.5" cy="74.5" rx="30" ry="30"/>
	<text x="67.5" y="80.5" font-family="Times New Roman" font-size="20">A</text>
	<ellipse stroke="#004CB2" stroke-width="2" fill="none" cx="303.5" cy="74.5" rx="30" ry="30"/>
	<text x="296.5" y="80.5" font-family="Times New Roman" font-size="20">B</text>
	<ellipse stroke="#004CB2" stroke-width="2" fill="none" cx="503.5" cy="74.5" rx="30" ry="30"/>
	<text x="496.5" y="80.5" font-family="Times New Roman" font-size="20">C</text>
	<ellipse stroke="#004CB2" stroke-width="2" fill="none" cx="503.5" cy="74.5" rx="21.515" ry="21.515"/>
	<ellipse stroke="#004CB2" stroke-width="2" fill="none" cx="182.5" cy="204.5" rx="30" ry="30"/>
	<text x="175.5" y="210.5" font-family="Times New Roman" font-size="20">D</text>
	<polygon stroke="#004CB2" stroke-width="2" points="2.5,74.5 44.5,74.5"/>
	<polygon fill="#000000" stroke-width="2" points="44.5,74.5 33.186,67.429 33.186,81.571"/>
	<polygon stroke="#004CB2" stroke-width="2" points="104.5,74.5 273.5,74.5"/>
	<polygon fill="#000000" stroke-width="2" points="273.5,74.5 262.186,67.429 262.186,81.571"/>
	<text x="184.5" y="95.5" font-family="Times New Roman" font-size="20">0</text>
	<polygon stroke="#004CB2" stroke-width="2" points="333.5,74.5 473.5,74.5"/>
	<polygon fill="#000000" stroke-width="2" points="473.5,74.5 462.186,67.429 462.186,81.571"/>
	<text x="398.5" y="95.5" font-family="Times New Roman" font-size="20">0</text>
	<polygon stroke="#004CB2" stroke-width="2" points="93.671,97.576 163.329,181.424"/>
	<polygon fill="#000000" stroke-width="2" points="163.329,181.424 161.539,168.203 150.661,177.24"/>
	<text x="112.5" y="159.5" font-family="Times New Roman" font-size="20">1</text>
	<polygon stroke="#004CB2" stroke-width="2" points="283.061,96.46 202.939,182.54"/>
	<polygon fill="#000000" stroke-width="2" points="202.939,182.54 215.824,179.076 205.472,169.441"/>
	<text x="227.5" y="130.5" font-family="Times New Roman" font-size="20">1</text>
	<path stroke="blue" stroke-width="2" fill="none" d="M 514.594,46.753 A 22.5,22.5 0 1 1 532.272,66.428"/>
	<text x="559.5" y="20.5" font-family="Times New Roman" font-size="20">0,1</text>
	<polygon fill="#000000" stroke-width="2" points="532.272,66.428 544.257,72.29 542.793,58.224"/>
	<path stroke="blue" stroke-width="2" fill="none" d="M 195.725,231.297 A 22.5,22.5 0 1 1 169.275,231.297"/>
	<text x="170.5" y="293.5" font-family="Times New Roman" font-size="20">0,1</text>
	<polygon fill="#000000" stroke-width="2" points="169.275,231.297 156.904,236.294 168.345,244.606"/>
</svg>
