<?xml version="1.0" standalone="no"?>
<!DOCTYPE svg PUBLIC "-//W3C//DTD SVG 1.1//EN" "http://www.w3.org/Graphics/SVG/1.1/DTD/svg11.dtd">

<svg width="545" height="396" viewBox="0 0 545 396" preserveAspectRatio="none" version="1.1" xmlns="http://www.w3.org/2000/svg">
	<ellipse stroke="#004CB2" stroke-width="2" fill="none" cx="59.5" cy="189.5" rx="30" ry="30"/>
	<text x="53.5" y="195.5" font-family="Times New Roman" font-size="20">S</text>
	<ellipse stroke="#004CB2" stroke-width="2" fill="none" cx="201.5" cy="61.5" rx="30" ry="30"/>
	<text x="194.5" y="67.5" font-family="Times New Roman" font-size="20">A</text>
	<ellipse stroke="#004CB2" stroke-width="2" fill="none" cx="201.5" cy="61.5" rx="21.515" ry="21.515"/>
	<ellipse stroke="#004CB2" stroke-width="2" fill="none" cx="457.5" cy="61.5" rx="30" ry="30"/>
	<text x="450.5" y="67.5" font-family="Times New Roman" font-size="20">B</text>
	<ellipse stroke="#004CB2" stroke-width="2" fill="none" cx="192.5" cy="334.5" rx="30" ry="30"/>
	<text x="185.5" y="340.5" font-family="Times New Roman" font-size="20">C</text>
	<ellipse stroke="#004CB2" stroke-width="2" fill="none" cx="192.5" cy="334.5" rx="21.515" ry="21.515"/>
	<ellipse stroke="#004CB2" stroke-width="2" fill="none" cx="457.5" cy="334.5" rx="30" ry="30"/>
	<text x="450.5" y="340.5" font-family="Times New Roman" font-size="20">D</text>
	<polygon stroke="#004CB2" stroke-width="2" points="2.5,189.5 29.5,189.5"/>
	<polygon fill="#000000" stroke-width="2" points="29.5,189.5 18.186,182.429 18.186,196.571"/>
	<polygon stroke="#004CB2" stroke-width="2" points="81.783,169.414 179.217,81.586"/>
	<polygon fill="#000000" stroke-width="2" points="179.217,81.586 166.079,83.909 175.548,94.413"/>
	<text x="135.5" y="146.5" font-family="Times New Roman" font-size="20">0</text>
	<polygon stroke="#004CB2" stroke-width="2" points="79.779,211.608 172.221,312.392"/>
	<polygon fill="#000000" stroke-width="2" points="172.221,312.392 169.785,299.274 159.363,308.834"/>
	<text x="110.5" y="282.5" font-family="Times New Roman" font-size="20">1</text>
	<path stroke="#004CB2" stroke-width="2" fill="none" d="M 228.617,48.704 A 268.576,268.576 0 0 1 430.383,48.704"/>
	<polygon fill="#000000" stroke-width="2" points="430.383,48.704 422.554,37.901 417.242,51.007"/>
	<text x="324.5" y="20.5" font-family="Times New Roman" font-size="20">1</text>
	<path stroke="#004CB2" stroke-width="2" fill="none" d="M 429.113,71.177 A 353.023,353.023 0 0 1 229.887,71.177"/>
	<polygon fill="#000000" stroke-width="2" points="229.887,71.177 238.746,81.153 242.736,67.586"/>
	<text x="324.5" y="106.5" font-family="Times New Roman" font-size="20">0</text>
	<path stroke="#004CB2" stroke-width="2" fill="none" d="M 221.146,325.613 A 399.135,399.135 0 0 1 428.854,325.613"/>
	<polygon fill="#000000" stroke-width="2" points="428.854,325.613 419.77,315.842 416.09,329.497"/>
	<text x="320.5" y="302.5" font-family="Times New Roman" font-size="20">0</text>
	<path stroke="#004CB2" stroke-width="2" fill="none" d="M 430.683,347.912 A 266.662,266.662 0 0 1 219.317,347.912"/>
	<polygon fill="#000000" stroke-width="2" points="219.317,347.912 226.902,358.888 232.507,345.904"/>
	<text x="320.5" y="390.5" font-family="Times New Roman" font-size="20">1</text>
	<path stroke="blue" stroke-width="2" fill="none" d="M 171.689,59.421 A 22.5,22.5 0 1 1 185.017,36.574"/>
	<text x="126.5" y="21.5" font-family="Times New Roman" font-size="20">0</text>
	<polygon fill="#000000" stroke-width="2" points="185.017,36.574 186.934,23.371 173.989,29.065"/>
	<path stroke="blue" stroke-width="2" fill="none" d="M 178.997,361.158 A 22.5,22.5 0 1 1 163.127,339.998"/>
	<text x="122.5" y="394.5" font-family="Times New Roman" font-size="20">1</text>
	<polygon fill="#000000" stroke-width="2" points="163.127,339.998 151.707,333.1 151.922,347.24"/>
	<path stroke="blue" stroke-width="2" fill="none" d="M 484.297,321.275 A 22.5,22.5 0 1 1 484.297,347.725"/>
	<text x="530.5" y="340.5" font-family="Times New Roman" font-size="20">0</text>
	<polygon fill="#000000" stroke-width="2" points="484.297,347.725 489.294,360.096 497.606,348.655"/>
	<path stroke="blue" stroke-width="2" fill="none" d="M 484.297,48.275 A 22.5,22.5 0 1 1 484.297,74.725"/>
	<text x="530.5" y="67.5" font-family="Times New Roman" font-size="20">1</text>
	<polygon fill="#000000" stroke-width="2" points="484.297,74.725 489.294,87.096 497.606,75.655"/>
</svg>
