<?xml version="1.0" standalone="no"?>
<!DOCTYPE svg PUBLIC "-//W3C//DTD SVG 1.1//EN" "http://www.w3.org/Graphics/SVG/1.1/DTD/svg11.dtd">

<svg width="623" height="194" viewBox="0 0 623 194" preserveAspectRatio="none" version="1.1" xmlns="http://www.w3.org/2000/svg">
	<ellipse stroke="#004CB2" stroke-width="2" fill="none" cx="66.5" cy="64.5" rx="30" ry="30"/>
	<text x="59.5" y="70.5" font-family="Times New Roman" font-size="20">A</text>
	<ellipse stroke="#004CB2" stroke-width="2" fill="none" cx="298.5" cy="64.5" rx="30" ry="30"/>
	<text x="291.5" y="70.5" font-family="Times New Roman" font-size="20">B</text>
	<ellipse stroke="#004CB2" stroke-width="2" fill="none" cx="535.5" cy="64.5" rx="30" ry="30"/>
	<text x="528.5" y="70.5" font-family="Times New Roman" font-size="20">C</text>
	<ellipse stroke="#004CB2" stroke-width="2" fill="none" cx="535.5" cy="64.5" rx="21.515" ry="21.515"/>
	<polygon stroke="#004CB2" stroke-width="2" points="2.5,64.5 36.5,64.5"/>
	<polygon fill="#000000" stroke-width="2" points="36.5,64.5 25.186,57.429 25.186,71.571"/>
	<path stroke="#004CB2" stroke-width="2" fill="none" d="M 92.622,49.8 A 210.433,210.433 0 0 1 272.378,49.8"/>
	<polygon fill="#000000" stroke-width="2" points="272.378,49.8 265.168,38.574 259.128,51.361"/>
	<text x="177.5" y="20.5" font-family="Times New Roman" font-size="20">0</text>
	<path stroke="#004CB2" stroke-width="2" fill="none" d="M 272.202,78.886 A 214.833,214.833 0 0 1 92.798,78.886"/>
	<polygon fill="#000000" stroke-width="2" points="92.798,78.886 100.126,90.035 106.031,77.185"/>
	<text x="177.5" y="119.5" font-family="Times New Roman" font-size="20">1</text>
	<path stroke="#004CB2" stroke-width="2" fill="none" d="M 509.437,79.307 A 214.04,214.04 0 0 1 324.563,79.307"/>
	<polygon fill="#000000" stroke-width="2" points="509.437,79.307 496.179,77.815 502.286,90.57"/>
	<text x="412.5" y="121.5" font-family="Times New Roman" font-size="20">0</text>
	<path stroke="#004CB2" stroke-width="2" fill="none" d="M 514.758,86.158 A 310.704,310.704 0 0 1 87.242,86.158"/>
	<polygon fill="#000000" stroke-width="2" points="87.242,86.158 90.588,99.073 100.318,88.809"/>
	<text x="296.5" y="192.5" font-family="Times New Roman" font-size="20">1</text>
	<path stroke="blue" stroke-width="2" fill="none" d="M 562.297,51.275 A 22.5,22.5 0 1 1 562.297,77.725"/>
	<text x="608.5" y="70.5" font-family="Times New Roman" font-size="20">0</text>
	<polygon fill="#000000" stroke-width="2" points="562.297,77.725 567.294,90.096 575.606,78.655"/>
	<path stroke="blue" stroke-width="2" fill="none" d="M 68.036,94.343 A 22.5,22.5 0 1 1 43.747,83.872"/>
	<text x="25.5" y="147.5" font-family="Times New Roman" font-size="20">1</text>
	<polygon fill="#000000" stroke-width="2" points="43.747,83.872 30.408,83.563 37.624,95.726"/>
</svg>
