<?xml version="1.0" standalone="no"?>
<!DOCTYPE svg PUBLIC "-//W3C//DTD SVG 1.1//EN" "http://www.w3.org/Graphics/SVG/1.1/DTD/svg11.dtd">

<svg width="590" height="494" viewBox="0 0 590 494" preserveAspectRatio="none" version="1.1" xmlns="http://www.w3.org/2000/svg">
	<ellipse stroke="#004CB2" stroke-width="2" fill="none" cx="76.5" cy="461.5" rx="30" ry="30"/>
	<ellipse stroke="#004CB2" stroke-width="2" fill="none" cx="76.5" cy="461.5" rx="21.515" ry="21.515"/>
	<ellipse stroke="#004CB2" stroke-width="2" fill="none" cx="545.5" cy="461.5" rx="30" ry="30"/>
	<ellipse stroke="#004CB2" stroke-width="2" fill="none" cx="297.5" cy="348.5" rx="30" ry="30"/>
	<ellipse stroke="#004CB2" stroke-width="2" fill="none" cx="297.5" cy="176.5" rx="30" ry="30"/>
	<ellipse stroke="#004CB2" stroke-width="2" fill="none" cx="76.5" cy="33.5" rx="30" ry="30"/>
	<ellipse stroke="#004CB2" stroke-width="2" fill="none" cx="545.5" cy="33.5" rx="30" ry="30"/>
	<polygon stroke="#004CB2" stroke-width="2" points="2.5,461.5 46.5,461.5"/>
	<polygon fill="#000000" stroke-width="2" points="46.5,461.5 35.186,454.429 35.186,468.571"/>
	<polygon stroke="#004CB2" stroke-width="2" points="106.5,461.5 515.5,461.5"/>
	<polygon fill="#000000" stroke-width="2" points="515.5,461.5 504.186,454.429 504.186,468.571"/>
	<text x="306.5" y="482.5" font-family="Times New Roman" font-size="20">1</text>
	<polygon stroke="#004CB2" stroke-width="2" points="518.2,449.061 324.8,360.939"/>
	<polygon fill="#000000" stroke-width="2" points="324.8,360.939 332.163,372.065 338.027,359.195"/>
	<text x="426.5" y="395.5" font-family="Times New Roman" font-size="20">1</text>
	<polygon stroke="#004CB2" stroke-width="2" points="270.789,362.158 103.211,447.842"/>
	<polygon fill="#000000" stroke-width="2" points="103.211,447.842 116.503,448.988 110.065,436.396"/>
	<text x="172.5" y="395.5" font-family="Times New Roman" font-size="20">1</text>
	<path stroke="#004CB2" stroke-width="2" fill="none" d="M 307.555,204.739 A 214.81,214.81 0 0 1 307.555,320.261"/>
	<polygon fill="#000000" stroke-width="2" points="307.555,204.739 303.787,217.537 317.408,213.735"/>
	<text x="320.5" y="268.5" font-family="Times New Roman" font-size="20">0</text>
	<path stroke="#004CB2" stroke-width="2" fill="none" d="M 290.265,319.399 A 296.536,296.536 0 0 1 290.265,205.601"/>
	<polygon fill="#000000" stroke-width="2" points="290.265,319.399 295.034,306.938 281.155,309.652"/>
	<text x="269.5" y="268.5" font-family="Times New Roman" font-size="20">0</text>
	<path stroke="#004CB2" stroke-width="2" fill="none" d="M 71.667,431.893 A 1236.628,1236.628 0 0 1 71.667,63.107"/>
	<polygon fill="#000000" stroke-width="2" points="71.667,431.893 76.972,419.651 62.988,421.76"/>
	<text x="42.5" y="253.5" font-family="Times New Roman" font-size="20">0</text>
	<path stroke="#004CB2" stroke-width="2" fill="none" d="M 82.032,62.985 A 1080.638,1080.638 0 0 1 82.032,432.015"/>
	<polygon fill="#000000" stroke-width="2" points="82.032,62.985 76.997,75.339 90.931,72.925"/>
	<text x="102.5" y="253.5" font-family="Times New Roman" font-size="20">0</text>
	<path stroke="#004CB2" stroke-width="2" fill="none" d="M 551.895,62.809 A 935.209,935.209 0 0 1 551.895,432.191"/>
	<polygon fill="#000000" stroke-width="2" points="551.895,62.809 547.198,75.296 561.061,72.504"/>
	<text x="575.5" y="253.5" font-family="Times New Roman" font-size="20">0</text>
	<path stroke="#004CB2" stroke-width="2" fill="none" d="M 540.702,431.887 A 1245.631,1245.631 0 0 1 540.702,63.113"/>
	<polygon fill="#000000" stroke-width="2" points="540.702,431.887 546.021,419.651 532.034,421.744"/>
	<text x="511.5" y="253.5" font-family="Times New Roman" font-size="20">0</text>
	<polygon stroke="#004CB2" stroke-width="2" points="519.511,48.486 323.489,161.514"/>
	<polygon fill="#000000" stroke-width="2" points="323.489,161.514 336.822,161.989 329.758,149.737"/>
	<text x="426.5" y="126.5" font-family="Times New Roman" font-size="20">1</text>
	<polygon stroke="#004CB2" stroke-width="2" points="272.313,160.202 101.687,49.798"/>
	<polygon fill="#000000" stroke-width="2" points="101.687,49.798 107.344,61.88 115.027,50.007"/>
	<text x="171.5" y="125.5" font-family="Times New Roman" font-size="20">1</text>
	<polygon stroke="#004CB2" stroke-width="2" points="106.5,33.5 515.5,33.5"/>
	<polygon fill="#000000" stroke-width="2" points="515.5,33.5 504.186,26.429 504.186,40.571"/>
	<text x="306.5" y="24.5" font-family="Times New Roman" font-size="20">1</text>
</svg>
