<?xml version="1.0" standalone="no"?>
<!DOCTYPE svg PUBLIC "-//W3C//DTD SVG 1.1//EN" "http://www.w3.org/Graphics/SVG/1.1/DTD/svg11.dtd">

<svg width="434" height="124" viewBox="0 0 434 124" preserveAspectRatio="none" version="1.1" xmlns="http://www.w3.org/2000/svg">
	<ellipse stroke="#004CB2" stroke-width="2" fill="none" cx="61.5" cy="33.5" rx="30" ry="30"/>
	<text x="54.5" y="39.5" font-family="Times New Roman" font-size="20">A</text>
	<ellipse stroke="#004CB2" stroke-width="2" fill="none" cx="327.5" cy="33.5" rx="30" ry="30"/>
	<text x="320.5" y="39.5" font-family="Times New Roman" font-size="20">B</text>
	<ellipse stroke="#004CB2" stroke-width="2" fill="none" cx="327.5" cy="33.5" rx="21.515" ry="21.515"/>
	<polygon stroke="#004CB2" stroke-width="2" points="2.5,33.5 31.5,33.5"/>
	<polygon fill="#000000" stroke-width="2" points="31.5,33.5 20.186,26.429 20.186,40.571"/>
	<polygon stroke="#004CB2" stroke-width="2" points="91.5,33.5 297.5,33.5"/>
	<polygon fill="#000000" stroke-width="2" points="297.5,33.5 286.186,26.429 286.186,40.571"/>
	<text x="189.5" y="54.5" font-family="Times New Roman" font-size="20">0</text>
	<path stroke="blue" stroke-width="2" fill="none" d="M 74.725,60.297 A 22.5,22.5 0 1 1 48.275,60.297"/>
	<text x="56.5" y="122.5" font-family="Times New Roman" font-size="20">1</text>
	<polygon fill="#000000" stroke-width="2" points="48.275,60.297 35.904,65.294 47.345,73.606"/>
	<path stroke="blue" stroke-width="2" fill="none" d="M 356.528,26.403 A 22.5,22.5 0 1 1 350.79,52.223"/>
	<text x="400.5" y="57.5" font-family="Times New Roman" font-size="20">0,1</text>
	<polygon fill="#000000" stroke-width="2" points="350.79,52.223 352.984,65.383 363.581,56.018"/>
</svg>
