<?xml version="1.0" standalone="no"?>
<!DOCTYPE svg PUBLIC "-//W3C//DTD SVG 1.1//EN" "http://www.w3.org/Graphics/SVG/1.1/DTD/svg11.dtd">

<svg width="719" height="76" viewBox="0 0 719 76" preserveAspectRatio="none" version="1.1" xmlns="http://www.w3.org/2000/svg">
	<ellipse stroke="#004CB2" stroke-width="2" fill="none" cx="69.5" cy="43.5" rx="30" ry="30"/>
	<ellipse stroke="#004CB2" stroke-width="2" fill="none" cx="209.5" cy="43.5" rx="30" ry="30"/>
	<ellipse stroke="#004CB2" stroke-width="2" fill="none" cx="341.5" cy="43.5" rx="30" ry="30"/>
	<ellipse stroke="#004CB2" stroke-width="2" fill="none" cx="479.5" cy="43.5" rx="30" ry="30"/>
	<ellipse stroke="#004CB2" stroke-width="2" fill="none" cx="479.5" cy="43.5" rx="21.515" ry="21.515"/>
	<ellipse stroke="#004CB2" stroke-width="2" fill="none" cx="613.5" cy="42.5" rx="30" ry="30"/>
	<polygon stroke="#004CB2" stroke-width="2" points="2.5,43.5 39.5,43.5"/>
	<polygon fill="#000000" stroke-width="2" points="39.5,43.5 28.186,36.429 28.186,50.571"/>
	<polygon stroke="#004CB2" stroke-width="2" points="99.5,43.5 179.5,43.5"/>
	<polygon fill="#000000" stroke-width="2" points="179.5,43.5 168.186,36.429 168.186,50.571"/>
	<text x="127.5" y="64.5" font-family="Times New Roman" font-size="20">0,1</text>
	<polygon stroke="#004CB2" stroke-width="2" points="239.5,43.5 311.5,43.5"/>
	<polygon fill="#000000" stroke-width="2" points="311.5,43.5 300.186,36.429 300.186,50.571"/>
	<text x="263.5" y="64.5" font-family="Times New Roman" font-size="20">0,1</text>
	<polygon stroke="#004CB2" stroke-width="2" points="371.5,43.5 449.5,43.5"/>
	<polygon fill="#000000" stroke-width="2" points="449.5,43.5 438.186,36.429 438.186,50.571"/>
	<text x="398.5" y="64.5" font-family="Times New Roman" font-size="20">0,1</text>
	<polygon stroke="#004CB2" stroke-width="2" points="509.499,43.276 583.501,42.724"/>
	<polygon fill="#000000" stroke-width="2" points="583.501,42.724 572.135,35.737 572.24,49.879"/>
	<text x="534.5" y="64.5" font-family="Times New Roman" font-size="20">0,1</text>
	<path stroke="blue" stroke-width="2" fill="none" d="M 634.74,21.48 A 22.5,22.5 0 1 1 643.104,46.573"/>
	<text x="685.5" y="20.5" font-family="Times New Roman" font-size="20">0,1</text>
	<polygon fill="#000000" stroke-width="2" points="643.104,46.573 651.756,56.728 656.024,43.245"/>
</svg>
