<?xml version="1.0" standalone="no"?>
<!DOCTYPE svg PUBLIC "-//W3C//DTD SVG 1.1//EN" "http://www.w3.org/Graphics/SVG/1.1/DTD/svg11.dtd">

<svg width="634" height="332" viewBox="0 0 634 332" preserveAspectRatio="none" version="1.1" xmlns="http://www.w3.org/2000/svg">
	<ellipse stroke="#004CB2" stroke-width="2" fill="none" cx="418.5" cy="289.5" rx="30" ry="30"/>
	<ellipse stroke="#004CB2" stroke-width="2" fill="none" cx="223.5" cy="289.5" rx="30" ry="30"/>
	<ellipse stroke="#004CB2" stroke-width="2" fill="none" cx="601.5" cy="289.5" rx="30" ry="30"/>
	<ellipse stroke="#004CB2" stroke-width="2" fill="none" cx="601.5" cy="289.5" rx="21.515" ry="21.515"/>
	<ellipse stroke="#004CB2" stroke-width="2" fill="none" cx="87.5" cy="178.5" rx="30" ry="30"/>
	<ellipse stroke="#004CB2" stroke-width="2" fill="none" cx="223.5" cy="97.5" rx="30" ry="30"/>
	<ellipse stroke="#004CB2" stroke-width="2" fill="none" cx="410.5" cy="97.5" rx="30" ry="30"/>
	<ellipse stroke="#004CB2" stroke-width="2" fill="none" cx="590.5" cy="97.5" rx="30" ry="30"/>
	<ellipse stroke="#004CB2" stroke-width="2" fill="none" cx="590.5" cy="97.5" rx="21.515" ry="21.515"/>
	<path stroke="#004CB2" stroke-width="2" fill="none" d="M 438.233,86.132 A 201.287,201.287 0 0 1 562.767,86.132"/>
	<polygon fill="#000000" stroke-width="2" points="562.767,86.132 554.196,75.908 549.821,89.356"/>
	<text x="495.5" y="67.5" font-family="Times New Roman" font-size="20">0</text>
	<path stroke="#004CB2" stroke-width="2" fill="none" d="M 562.354,107.816 A 221.149,221.149 0 0 1 438.646,107.816"/>
	<polygon fill="#000000" stroke-width="2" points="438.646,107.816 447.531,117.769 451.486,104.191"/>
	<text x="495.5" y="137.5" font-family="Times New Roman" font-size="20">1</text>
	<polygon stroke="#004CB2" stroke-width="2" points="253.5,97.5 380.5,97.5"/>
	<polygon fill="#000000" stroke-width="2" points="380.5,97.5 369.186,90.429 369.186,104.571"/>
	<text x="304.5" y="118.5" font-family="Times New Roman" font-size="20">0,1</text>
	<path stroke="#004CB2" stroke-width="2" fill="none" d="M 445.633,276.779 A 184.203,184.203 0 0 1 574.367,276.779"/>
	<polygon fill="#000000" stroke-width="2" points="574.367,276.779 566.237,266.201 561.296,279.451"/>
	<text x="504.5" y="256.5" font-family="Times New Roman" font-size="20">1</text>
	<path stroke="#004CB2" stroke-width="2" fill="none" d="M 573.469,300.122 A 219.176,219.176 0 0 1 446.531,300.122"/>
	<polygon fill="#000000" stroke-width="2" points="446.531,300.122 455.313,310.167 459.408,296.63"/>
	<text x="504.5" y="330.5" font-family="Times New Roman" font-size="20">0</text>
	<polygon stroke="#004CB2" stroke-width="2" points="253.5,289.5 388.5,289.5"/>
	<polygon fill="#000000" stroke-width="2" points="388.5,289.5 377.186,282.429 377.186,296.571"/>
	<text x="308.5" y="310.5" font-family="Times New Roman" font-size="20">0,1</text>
	<polygon stroke="#004CB2" stroke-width="2" points="113.275,163.149 197.725,112.851"/>
	<polygon fill="#000000" stroke-width="2" points="197.725,112.851 184.387,112.565 191.623,124.716"/>
	<text x="160.5" y="159.5" font-family="Times New Roman" font-size="20">1</text>
	<polygon stroke="#004CB2" stroke-width="2" points="110.742,197.469 200.258,270.531"/>
	<polygon fill="#000000" stroke-width="2" points="200.258,270.531 195.965,257.899 187.022,268.855"/>
	<text x="140.5" y="254.5" font-family="Times New Roman" font-size="20">0</text>
	<polygon stroke="blue" stroke-width="2" points="2.5,178.5 57.5,178.5"/>
	<polygon fill="#000000" stroke-width="2" points="57.5,178.5 46.186,171.429 46.186,185.571"/>
	<path stroke="blue" stroke-width="2" fill="none" d="M 397.275,70.703 A 22.5,22.5 0 1 1 423.725,70.703"/>
	<text x="405.5" y="21.5" font-family="Times New Roman" font-size="20">1</text>
	<polygon fill="#000000" stroke-width="2" points="423.725,70.703 436.096,65.706 424.655,57.394"/>
	<path stroke="blue" stroke-width="2" fill="none" d="M 401.491,264.93 A 22.5,22.5 0 1 1 427.655,261.054"/>
	<text x="399.5" y="212.5" font-family="Times New Roman" font-size="20">0</text>
	<polygon fill="#000000" stroke-width="2" points="427.655,261.054 439.16,254.298 426.624,247.752"/>
	<path stroke="blue" stroke-width="2" fill="none" d="M 592.345,261.054 A 22.5,22.5 0 1 1 618.509,264.93"/>
	<text x="610.5" y="212.5" font-family="Times New Roman" font-size="20">1</text>
	<polygon fill="#000000" stroke-width="2" points="618.509,264.93 631.479,261.8 621.379,251.901"/>
	<path stroke="blue" stroke-width="2" fill="none" d="M 580.434,69.364 A 22.5,22.5 0 1 1 606.71,72.395"/>
	<text x="595.5" y="20.5" font-family="Times New Roman" font-size="20">0</text>
	<polygon fill="#000000" stroke-width="2" points="606.71,72.395 619.571,68.85 609.158,59.28"/>
</svg>
