<?xml version="1.0" standalone="no"?>
<!DOCTYPE svg PUBLIC "-//W3C//DTD SVG 1.1//EN" "http://www.w3.org/Graphics/SVG/1.1/DTD/svg11.dtd">

<svg width="726" height="202" viewBox="0 0 726 202" preserveAspectRatio="none" version="1.1" xmlns="http://www.w3.org/2000/svg">
	<ellipse stroke="#004CB2" stroke-width="2" fill="none" cx="87.5" cy="102.5" rx="34" ry="34"/>
	<text x="83.5" y="108.5" font-family="Times New Roman" font-size="20">a</text>
	<ellipse stroke="#004CB2" stroke-width="2" fill="none" cx="285.5" cy="101.5" rx="34" ry="34"/>
	<text x="280.5" y="107.5" font-family="Times New Roman" font-size="20">b</text>
	<ellipse stroke="#004CB2" stroke-width="2" fill="none" cx="476.5" cy="102.5" rx="34" ry="34"/>
	<text x="472.5" y="108.5" font-family="Times New Roman" font-size="20">c</text>
	<ellipse stroke="#004CB2" stroke-width="2" fill="none" cx="689.5" cy="101.5" rx="34" ry="34"/>
	<text x="674.5" y="107.5" font-family="Times New Roman" font-size="20">halt</text>
	<ellipse stroke="#004CB2" stroke-width="2" fill="none" cx="689.5" cy="101.5" rx="25.515" ry="25.515"/>
	<polygon stroke="#004CB2" stroke-width="2" points="2.5,102.5 53.5,102.5"/>
	<polygon fill="#000000" stroke-width="2" points="53.5,102.5 42.186,95.429 42.186,109.571"/>
	<polygon stroke="#004CB2" stroke-width="2" points="121.5,102.328 251.5,101.672"/>
	<polygon fill="#000000" stroke-width="2" points="251.5,101.672 240.151,94.658 240.223,108.8"/>
	<text x="170.5" y="92.5" font-family="Times New Roman" font-size="20">11R</text>
	<polygon stroke="#004CB2" stroke-width="2" points="319.5,101.678 442.5,102.322"/>
	<polygon fill="#000000" stroke-width="2" points="442.5,102.322 431.224,95.192 431.15,109.334"/>
	<text x="364.5" y="92.5" font-family="Times New Roman" font-size="20">00R</text>
	<polygon stroke="#004CB2" stroke-width="2" points="510.5,102.34 655.5,101.66"/>
	<polygon fill="#000000" stroke-width="2" points="655.5,101.66 644.154,94.642 644.22,108.784"/>
	<text x="566.5" y="92.5" font-family="Times New Roman" font-size="20">11R</text>
	<path stroke="blue" stroke-width="2" fill="none" d="M 84.486,68.767 A 25.5,25.5 0 1 1 112.441,79.589"/>
	<text x="118.5" y="21.5" font-family="Times New Roman" font-size="20">00R</text>
	<polygon fill="#000000" stroke-width="2" points="112.441,79.589 125.781,79.395 118.113,67.512"/>
	<path stroke="blue" stroke-width="2" fill="none" d="M 282.257,67.788 A 25.5,25.5 0 1 1 310.285,78.42"/>
	<text x="316.5" y="20.5" font-family="Times New Roman" font-size="20">11R</text>
	<polygon fill="#000000" stroke-width="2" points="310.285,78.42 323.624,78.135 315.874,66.305"/>
	<path stroke="#004CB2" stroke-width="2" fill="none" d="M 450.449,124.317 A 283.157,283.157 0 0 1 113.551,124.317"/>
	<polygon fill="#000000" stroke-width="2" points="113.551,124.317 118.438,136.731 126.851,125.363"/>
	<text x="265.5" y="200.5" font-family="Times New Roman" font-size="20">00R</text>
</svg>
