<?xml version="1.0" standalone="no"?>
<!DOCTYPE svg PUBLIC "-//W3C//DTD SVG 1.1//EN" "http://www.w3.org/Graphics/SVG/1.1/DTD/svg11.dtd">

<svg width="536" height="239" viewBox="0 0 536 239" preserveAspectRatio="none" version="1.1" xmlns="http://www.w3.org/2000/svg">
	<ellipse stroke="#004CB2" stroke-width="2" fill="none" cx="87.5" cy="113.5" rx="30" ry="30"/>
	<ellipse stroke="#004CB2" stroke-width="2" fill="none" cx="219.5" cy="33.5" rx="30" ry="30"/>
	<ellipse stroke="#004CB2" stroke-width="2" fill="none" cx="219.5" cy="33.5" rx="21.515" ry="21.515"/>
	<ellipse stroke="#004CB2" stroke-width="2" fill="none" cx="219.5" cy="206.5" rx="30" ry="30"/>
	<ellipse stroke="#004CB2" stroke-width="2" fill="none" cx="503.5" cy="206.5" rx="30" ry="30"/>
	<ellipse stroke="#004CB2" stroke-width="2" fill="none" cx="503.5" cy="206.5" rx="21.515" ry="21.515"/>
	<ellipse stroke="#004CB2" stroke-width="2" fill="none" cx="361.5" cy="125.5" rx="30" ry="30"/>
	<polygon stroke="#004CB2" stroke-width="2" points="2.5,113.5 57.5,113.5"/>
	<polygon fill="#000000" stroke-width="2" points="57.5,113.5 46.186,106.429 46.186,120.571"/>
	<polygon stroke="#004CB2" stroke-width="2" points="113.156,97.951 193.844,49.049"/>
	<polygon fill="#000000" stroke-width="2" points="193.844,49.049 180.504,48.866 187.834,60.96"/>
	<text x="139.5" y="64.5" font-family="Times New Roman" font-size="20">&#949;</text>
	<polygon stroke="#004CB2" stroke-width="2" points="112.024,130.779 194.976,189.221"/>
	<polygon fill="#000000" stroke-width="2" points="194.976,189.221 189.799,176.925 181.654,188.486"/>
	<text x="139.5" y="180.5" font-family="Times New Roman" font-size="20">&#949;</text>
	<path stroke="#004CB2" stroke-width="2" fill="none" d="M 246.297,20.275 A 22.5,22.5 0 1 1 246.297,46.725"/>
	<text x="292.5" y="39.5" font-family="Times New Roman" font-size="20">a</text>
	<polygon fill="#000000" stroke-width="2" points="246.297,46.725 251.294,59.096 259.606,47.655"/>
	<polygon stroke="#004CB2" stroke-width="2" points="245.559,191.636 335.441,140.364"/>
	<polygon fill="#000000" stroke-width="2" points="335.441,140.364 322.111,139.828 329.118,152.112"/>
	<text x="276.5" y="156.5" font-family="Times New Roman" font-size="20">a</text>
	<polygon stroke="#004CB2" stroke-width="2" points="387.559,140.364 477.441,191.636"/>
	<polygon fill="#000000" stroke-width="2" points="477.441,191.636 471.118,179.888 464.111,192.172"/>
	<text x="437.5" y="156.5" font-family="Times New Roman" font-size="20">b</text>
	<polygon stroke="#004CB2" stroke-width="2" points="473.5,206.5 249.5,206.5"/>
	<polygon fill="#000000" stroke-width="2" points="249.5,206.5 260.814,213.571 260.814,199.429"/>
	<text x="357.5" y="227.5" font-family="Times New Roman" font-size="20">&#949;</text>
</svg>
