<?xml version="1.0" standalone="no"?>
<!DOCTYPE svg PUBLIC "-//W3C//DTD SVG 1.1//EN" "http://www.w3.org/Graphics/SVG/1.1/DTD/svg11.dtd">

<svg width="557" height="267" viewBox="0 0 557 267" preserveAspectRatio="none" version="1.1" xmlns="http://www.w3.org/2000/svg">
	<ellipse stroke="#004CB2" stroke-width="2" fill="none" cx="73.5" cy="133.5" rx="30" ry="30"/>
	<text x="66.5" y="139.5" font-family="Times New Roman" font-size="20">A</text>
	<ellipse stroke="#004CB2" stroke-width="2" fill="none" cx="266.5" cy="33.5" rx="30" ry="30"/>
	<text x="259.5" y="39.5" font-family="Times New Roman" font-size="20">B</text>
	<ellipse stroke="#004CB2" stroke-width="2" fill="none" cx="266.5" cy="234.5" rx="30" ry="30"/>
	<text x="259.5" y="240.5" font-family="Times New Roman" font-size="20">C</text>
	<ellipse stroke="#004CB2" stroke-width="2" fill="none" cx="457.5" cy="133.5" rx="30" ry="30"/>
	<text x="450.5" y="139.5" font-family="Times New Roman" font-size="20">D</text>
	<ellipse stroke="#004CB2" stroke-width="2" fill="none" cx="457.5" cy="133.5" rx="21.515" ry="21.515"/>
	<polygon stroke="#004CB2" stroke-width="2" points="2.5,133.5 43.5,133.5"/>
	<polygon fill="#000000" stroke-width="2" points="43.5,133.5 32.186,126.429 32.186,140.571"/>
	<polygon stroke="#004CB2" stroke-width="2" points="100.137,119.699 239.863,47.301"/>
	<polygon fill="#000000" stroke-width="2" points="239.863,47.301 226.565,46.228 233.071,58.785"/>
	<text x="155.5" y="74.5" font-family="Times New Roman" font-size="20">0</text>
	<polygon stroke="#004CB2" stroke-width="2" points="293.078,47.415 430.922,119.585"/>
	<polygon fill="#000000" stroke-width="2" points="430.922,119.585 424.179,108.073 417.619,120.602"/>
	<text x="366.5" y="74.5" font-family="Times New Roman" font-size="20">0</text>
	<polygon stroke="#004CB2" stroke-width="2" points="100.08,147.41 239.92,220.59"/>
	<polygon fill="#000000" stroke-width="2" points="239.92,220.59 233.174,209.079 226.617,221.609"/>
	<text x="155.5" y="205.5" font-family="Times New Roman" font-size="20">1</text>
	<polygon stroke="#004CB2" stroke-width="2" points="293.02,220.476 430.98,147.524"/>
	<polygon fill="#000000" stroke-width="2" points="430.98,147.524 417.673,146.562 424.284,159.064"/>
	<text x="366.5" y="205.5" font-family="Times New Roman" font-size="20">1</text>
	<path stroke="blue" stroke-width="2" fill="none" d="M 487.361,134.634 A 22.5,22.5 0 1 1 474.764,157.892"/>
	<text x="523.5" y="183.5" font-family="Times New Roman" font-size="20">0,1</text>
	<polygon fill="#000000" stroke-width="2" points="474.764,157.892 473.265,171.149 486.024,165.048"/>
	<path stroke="blue" stroke-width="2" fill="none" d="M 78.928,162.886 A 22.5,22.5 0 1 1 53.478,155.683"/>
	<text x="28.5" y="220.5" font-family="Times New Roman" font-size="20">0,1</text>
	<polygon fill="#000000" stroke-width="2" points="53.478,155.683 40.214,157.122 48.959,168.236"/>
</svg>
