<?xml version="1.0" standalone="no"?>
<!DOCTYPE svg PUBLIC "-//W3C//DTD SVG 1.1//EN" "http://www.w3.org/Graphics/SVG/1.1/DTD/svg11.dtd">

<svg width="446" height="301" viewBox="0 0 446 301" preserveAspectRatio="none" version="1.1" xmlns="http://www.w3.org/2000/svg">
	<ellipse stroke="#004CB2" stroke-width="2" fill="none" cx="75.5" cy="140.5" rx="30" ry="30"/>
	<ellipse stroke="#004CB2" stroke-width="2" fill="none" cx="75.5" cy="140.5" rx="21.515" ry="21.515"/>
	<ellipse stroke="#004CB2" stroke-width="2" fill="none" cx="227.5" cy="33.5" rx="30" ry="30"/>
	<ellipse stroke="#004CB2" stroke-width="2" fill="none" cx="227.5" cy="33.5" rx="21.515" ry="21.515"/>
	<ellipse stroke="#004CB2" stroke-width="2" fill="none" cx="227.5" cy="249.5" rx="30" ry="30"/>
	<ellipse stroke="#004CB2" stroke-width="2" fill="none" cx="413.5" cy="249.5" rx="30" ry="30"/>
	<ellipse stroke="#004CB2" stroke-width="2" fill="none" cx="413.5" cy="249.5" rx="21.515" ry="21.515"/>
	<polygon stroke="#004CB2" stroke-width="2" points="100.031,123.231 202.969,50.769"/>
	<polygon fill="#000000" stroke-width="2" points="202.969,50.769 189.647,51.499 197.788,63.063"/>
	<text x="156.5" y="107.5" font-family="Times New Roman" font-size="20">a</text>
	<polygon stroke="#004CB2" stroke-width="2" points="99.879,157.983 203.121,232.017"/>
	<polygon fill="#000000" stroke-width="2" points="203.121,232.017 198.047,219.678 189.806,231.171"/>
	<text x="137.5" y="215.5" font-family="Times New Roman" font-size="20">a</text>
	<path stroke="#004CB2" stroke-width="2" fill="none" d="M 254.757,237.042 A 191.532,191.532 0 0 1 386.243,237.042"/>
	<polygon fill="#000000" stroke-width="2" points="386.243,237.042 378.043,226.518 373.189,239.801"/>
	<text x="315.5" y="216.5" font-family="Times New Roman" font-size="20">b</text>
	<path stroke="#004CB2" stroke-width="2" fill="none" d="M 387.195,263.84 A 167.495,167.495 0 0 1 253.805,263.84"/>
	<polygon fill="#000000" stroke-width="2" points="253.805,263.84 261.368,274.831 266.999,261.859"/>
	<text x="316.5" y="298.5" font-family="Times New Roman" font-size="20">a</text>
	<path stroke="blue" stroke-width="2" fill="none" d="M 256.82,39.272 A 22.5,22.5 0 1 1 240.753,60.283"/>
	<text x="286.5" y="94.5" font-family="Times New Roman" font-size="20">a</text>
	<polygon fill="#000000" stroke-width="2" points="240.753,60.283 237.207,73.145 250.761,69.106"/>
	<polygon stroke="blue" stroke-width="2" points="2.5,140.5 45.5,140.5"/>
	<polygon fill="#000000" stroke-width="2" points="45.5,140.5 34.186,133.429 34.186,147.571"/>
</svg>
