<?xml version="1.0" standalone="no"?>
<!DOCTYPE svg PUBLIC "-//W3C//DTD SVG 1.1//EN" "http://www.w3.org/Graphics/SVG/1.1/DTD/svg11.dtd">

<svg width="676" height="166" viewBox="0 0 676 166" preserveAspectRatio="none" version="1.1" xmlns="http://www.w3.org/2000/svg">
	<ellipse stroke="#004CB2" stroke-width="2" fill="none" cx="61.5" cy="79.5" rx="30" ry="30"/>
	<text x="54.5" y="85.5" font-family="Times New Roman" font-size="20">A</text>
	<ellipse stroke="#004CB2" stroke-width="2" fill="none" cx="61.5" cy="79.5" rx="21.515" ry="21.515"/>
	<ellipse stroke="#004CB2" stroke-width="2" fill="none" cx="248.5" cy="80.5" rx="30" ry="30"/>
	<text x="241.5" y="86.5" font-family="Times New Roman" font-size="20">B</text>
	<ellipse stroke="#004CB2" stroke-width="2" fill="none" cx="447.5" cy="80.5" rx="30" ry="30"/>
	<text x="440.5" y="86.5" font-family="Times New Roman" font-size="20">C</text>
	<ellipse stroke="#004CB2" stroke-width="2" fill="none" cx="643.5" cy="80.5" rx="30" ry="30"/>
	<text x="636.5" y="86.5" font-family="Times New Roman" font-size="20">D</text>
	<ellipse stroke="#004CB2" stroke-width="2" fill="none" cx="643.5" cy="80.5" rx="21.515" ry="21.515"/>
	<polygon stroke="#004CB2" stroke-width="2" points="248.5,2.5 248.5,50.5"/>
	<polygon fill="#000000" stroke-width="2" points="248.5,50.5 255.571,39.186 241.429,39.186"/>
	<polygon stroke="#004CB2" stroke-width="2" points="218.5,80.34 91.5,79.66"/>
	<polygon fill="#000000" stroke-width="2" points="91.5,79.66 102.775,86.792 102.851,72.65"/>
	<text x="150.5" y="70.5" font-family="Times New Roman" font-size="20">&#949;</text>
	<polygon stroke="#004CB2" stroke-width="2" points="278.5,80.5 417.5,80.5"/>
	<polygon fill="#000000" stroke-width="2" points="417.5,80.5 406.186,73.429 406.186,87.571"/>
	<text x="343.5" y="71.5" font-family="Times New Roman" font-size="20">&#949;</text>
	<polygon stroke="#004CB2" stroke-width="2" points="477.5,80.5 613.5,80.5"/>
	<polygon fill="#000000" stroke-width="2" points="613.5,80.5 602.186,73.429 602.186,87.571"/>
	<text x="540.5" y="71.5" font-family="Times New Roman" font-size="20">0</text>
	<path stroke="blue" stroke-width="2" fill="none" d="M 445.253,110.298 A 22.5,22.5 0 1 1 422.482,96.842"/>
	<text x="383.5" y="159.5" font-family="Times New Roman" font-size="20">0,1</text>
	<polygon fill="#000000" stroke-width="2" points="422.482,96.842 409.289,94.851 414.911,107.828"/>
	<path stroke="blue" stroke-width="2" fill="none" d="M 54.918,108.649 A 22.5,22.5 0 1 1 34.36,92.007"/>
	<text x="3.5" y="152.5" font-family="Times New Roman" font-size="20">1</text>
	<polygon fill="#000000" stroke-width="2" points="34.36,92.007 21.601,88.107 25.264,101.766"/>
</svg>
