<?xml version="1.0" standalone="no"?>
<!DOCTYPE svg PUBLIC "-//W3C//DTD SVG 1.1//EN" "http://www.w3.org/Graphics/SVG/1.1/DTD/svg11.dtd">

<svg width="539" height="457" viewBox="0 0 539 457" preserveAspectRatio="none" version="1.1" xmlns="http://www.w3.org/2000/svg">
	<ellipse stroke="#004CB2" stroke-width="2" fill="none" cx="125.5" cy="62.5" rx="41" ry="41"/>
	<text x="104.5" y="68.5" font-family="Times New Roman" font-size="20">ABC</text>
	<ellipse stroke="#004CB2" stroke-width="2" fill="none" cx="125.5" cy="62.5" rx="32.515" ry="32.515"/>
	<ellipse stroke="#004CB2" stroke-width="2" fill="none" cx="430.5" cy="62.5" rx="41" ry="41"/>
	<text x="416.5" y="68.5" font-family="Times New Roman" font-size="20">CD</text>
	<ellipse stroke="#004CB2" stroke-width="2" fill="none" cx="430.5" cy="62.5" rx="32.515" ry="32.515"/>
	<ellipse stroke="#004CB2" stroke-width="2" fill="none" cx="125.5" cy="362.5" rx="41" ry="41"/>
	<text x="111.5" y="368.5" font-family="Times New Roman" font-size="20">AC</text>
	<ellipse stroke="#004CB2" stroke-width="2" fill="none" cx="125.5" cy="362.5" rx="32.515" ry="32.515"/>
	<ellipse stroke="#004CB2" stroke-width="2" fill="none" cx="430.5" cy="362.5" rx="41" ry="41"/>
	<text x="423.5" y="368.5" font-family="Times New Roman" font-size="20">C</text>
	<polygon stroke="#004CB2" stroke-width="2" points="2.5,62.5 84.5,62.5"/>
	<polygon fill="#000000" stroke-width="2" points="84.5,62.5 73.186,55.429 73.186,69.571"/>
	<polygon stroke="#004CB2" stroke-width="2" points="166.5,62.5 389.5,62.5"/>
	<polygon fill="#000000" stroke-width="2" points="389.5,62.5 378.186,55.429 378.186,69.571"/>
	<text x="273.5" y="53.5" font-family="Times New Roman" font-size="20">0</text>
	<polygon stroke="#004CB2" stroke-width="2" points="125.5,103.5 125.5,321.5"/>
	<polygon fill="#000000" stroke-width="2" points="125.5,321.5 132.571,310.186 118.429,310.186"/>
	<text x="110.5" y="218.5" font-family="Times New Roman" font-size="20">1</text>
	<path stroke="#004CB2" stroke-width="2" fill="none" d="M 116.736,402.389 A 30.75,30.75 0 1 1 88.508,379.807"/>
	<text x="52.5" y="455.5" font-family="Times New Roman" font-size="20">1</text>
	<polygon fill="#000000" stroke-width="2" points="88.508,379.807 75.727,375.98 79.468,389.619"/>
	<polygon stroke="#004CB2" stroke-width="2" points="154.73,333.749 401.27,91.251"/>
	<polygon fill="#000000" stroke-width="2" points="401.27,91.251 388.246,94.143 398.163,104.226"/>
	<text x="262.5" y="203.5" font-family="Times New Roman" font-size="20">0</text>
	<path stroke="#004CB2" stroke-width="2" fill="none" d="M 416.673,323.922 A 387.941,387.941 0 0 1 416.673,101.078"/>
	<polygon fill="#000000" stroke-width="2" points="416.673,101.078 406.65,109.884 420.196,113.946"/>
	<text x="385.5" y="218.5" font-family="Times New Roman" font-size="20">0</text>
	<path stroke="#004CB2" stroke-width="2" fill="none" d="M 442.254,101.764 A 455.042,455.042 0 0 1 442.254,323.236"/>
	<polygon fill="#000000" stroke-width="2" points="442.254,323.236 451.866,313.983 438.149,310.541"/>
	<text x="460.5" y="218.5" font-family="Times New Roman" font-size="20">1</text>
	<path stroke="blue" stroke-width="2" fill="none" d="M 470.175,372.186 A 30.75,30.75 0 1 1 446.945,399.883"/>
	<text x="506.5" y="442.5" font-family="Times New Roman" font-size="20">1</text>
	<polygon fill="#000000" stroke-width="2" points="446.945,399.883 442.824,412.572 456.545,409.147"/>
	<path stroke="blue" stroke-width="2" fill="none" d="M 456.626,31.11 A 30.75,30.75 0 1 1 471.307,64.143"/>
	<text x="522.5" y="21.5" font-family="Times New Roman" font-size="20">0</text>
	<polygon fill="#000000" stroke-width="2" points="471.307,64.143 480.897,73.418 483.847,59.587"/>
</svg>
