<?xml version="1.0" standalone="no"?>
<!DOCTYPE svg PUBLIC "-//W3C//DTD SVG 1.1//EN" "http://www.w3.org/Graphics/SVG/1.1/DTD/svg11.dtd">

<svg width="793" height="601" viewBox="0 0 793 601" preserveAspectRatio="none" version="1.1" xmlns="http://www.w3.org/2000/svg">
	<ellipse stroke="#004CB2" stroke-width="2" fill="none" cx="197.5" cy="125.5" rx="40" ry="40"/>
	<text x="187.5" y="131.5" font-family="Times New Roman" font-size="20">---</text>
	<ellipse stroke="#004CB2" stroke-width="2" fill="none" cx="534.5" cy="125.5" rx="40" ry="40"/>
	<text x="520.5" y="131.5" font-family="Times New Roman" font-size="20">CD</text>
	<ellipse stroke="#004CB2" stroke-width="2" fill="none" cx="534.5" cy="125.5" rx="31.515" ry="31.515"/>
	<ellipse stroke="#004CB2" stroke-width="2" fill="none" cx="197.5" cy="436.5" rx="40" ry="40"/>
	<text x="190.5" y="442.5" font-family="Times New Roman" font-size="20">--</text>
	<polygon stroke="#004CB2" stroke-width="2" points="237.5,125.5 494.5,125.5"/>
	<polygon fill="#000000" stroke-width="2" points="494.5,125.5 483.186,118.429 483.186,132.571"/>
	<text x="361.5" y="116.5" font-family="Times New Roman" font-size="20">0</text>
	<polygon stroke="#004CB2" stroke-width="2" points="92.5,125.5 157.5,125.5"/>
	<polygon fill="#000000" stroke-width="2" points="157.5,125.5 146.186,118.429 146.186,132.571"/>
	<polygon stroke="#004CB2" stroke-width="2" points="197.5,165.5 197.5,396.5"/>
	<polygon fill="#000000" stroke-width="2" points="197.5,396.5 204.571,385.186 190.429,385.186"/>
	<text x="182.5" y="287.5" font-family="Times New Roman" font-size="20">1</text>
	<polygon stroke="#004CB2" stroke-width="2" points="226.895,409.372 505.105,152.628"/>
	<polygon fill="#000000" stroke-width="2" points="505.105,152.628 491.995,155.104 501.586,165.497"/>
	<text x="350.5" y="272.5" font-family="Times New Roman" font-size="20">0</text>
	<path stroke="blue" stroke-width="2" fill="none" d="M 161.771,454.134 A 30,30 0 1 1 161.771,418.866"/>
	<text x="92.5" y="442.5" font-family="Times New Roman" font-size="20">1</text>
	<polygon fill="#000000" stroke-width="2" points="161.771,418.866 156.774,406.496 148.461,417.937"/>
	<path stroke="blue" stroke-width="2" fill="none" d="M 555.216,91.465 A 30,30 0 1 1 574.116,121.24"/>
	<text x="616.5" y="70.5" font-family="Times New Roman" font-size="20">0</text>
	<polygon fill="#000000" stroke-width="2" points="574.116,121.24 584.964,129.006 585.85,114.892"/>
	<path stroke="blue" stroke-width="2" fill="none" d="M 566.802,148.827 A 30,30 0 1 1 535.633,165.328"/>
	<text x="581.5" y="226.5" font-family="Times New Roman" font-size="20">11*0</text>
	<polygon fill="#000000" stroke-width="2" points="535.633,165.328 527.038,175.532 541.039,177.525"/>
</svg>
