<?xml version="1.0" standalone="no"?>
<!DOCTYPE svg PUBLIC "-//W3C//DTD SVG 1.1//EN" "http://www.w3.org/Graphics/SVG/1.1/DTD/svg11.dtd">

<svg width="797" height="594" viewBox="0 0 797 594" preserveAspectRatio="none" version="1.1" xmlns="http://www.w3.org/2000/svg">
	<ellipse stroke="#004CB2" stroke-width="2" fill="none" cx="197.5" cy="125.5" rx="40" ry="40"/>
	<text x="187.5" y="131.5" font-family="Times New Roman" font-size="20">---</text>
	<ellipse stroke="#004CB2" stroke-width="2" fill="none" cx="534.5" cy="125.5" rx="40" ry="40"/>
	<text x="520.5" y="131.5" font-family="Times New Roman" font-size="20">CD</text>
	<ellipse stroke="#004CB2" stroke-width="2" fill="none" cx="534.5" cy="125.5" rx="31.515" ry="31.515"/>
	<ellipse stroke="#004CB2" stroke-width="2" fill="none" cx="197.5" cy="436.5" rx="40" ry="40"/>
	<text x="183.5" y="442.5" font-family="Times New Roman" font-size="20">AC</text>
	<ellipse stroke="#004CB2" stroke-width="2" fill="none" cx="197.5" cy="436.5" rx="31.515" ry="31.515"/>
	<ellipse stroke="#004CB2" stroke-width="2" fill="none" cx="534.5" cy="436.5" rx="40" ry="40"/>
	<text x="527.5" y="442.5" font-family="Times New Roman" font-size="20">C</text>
	<polygon stroke="#004CB2" stroke-width="2" points="237.5,125.5 494.5,125.5"/>
	<polygon fill="#000000" stroke-width="2" points="494.5,125.5 483.186,118.429 483.186,132.571"/>
	<text x="361.5" y="116.5" font-family="Times New Roman" font-size="20">0</text>
	<polygon stroke="#004CB2" stroke-width="2" points="92.5,125.5 157.5,125.5"/>
	<polygon fill="#000000" stroke-width="2" points="157.5,125.5 146.186,118.429 146.186,132.571"/>
	<polygon stroke="#004CB2" stroke-width="2" points="197.5,165.5 197.5,396.5"/>
	<polygon fill="#000000" stroke-width="2" points="197.5,396.5 204.571,385.186 190.429,385.186"/>
	<text x="182.5" y="287.5" font-family="Times New Roman" font-size="20">1</text>
	<polygon stroke="#004CB2" stroke-width="2" points="226.895,409.372 505.105,152.628"/>
	<polygon fill="#000000" stroke-width="2" points="505.105,152.628 491.995,155.104 501.586,165.497"/>
	<text x="350.5" y="272.5" font-family="Times New Roman" font-size="20">0</text>
	<path stroke="blue" stroke-width="2" fill="none" d="M 161.771,454.134 A 30,30 0 1 1 161.771,418.866"/>
	<text x="92.5" y="442.5" font-family="Times New Roman" font-size="20">1</text>
	<polygon fill="#000000" stroke-width="2" points="161.771,418.866 156.774,406.496 148.461,417.937"/>
	<path stroke="#004CB2" stroke-width="2" fill="none" d="M 522.43,398.378 A 452.467,452.467 0 0 1 522.43,163.622"/>
	<polygon fill="#000000" stroke-width="2" points="522.43,398.378 526.324,385.617 512.666,389.286"/>
	<text x="491.5" y="287.5" font-family="Times New Roman" font-size="20">1</text>
	<path stroke="#004CB2" stroke-width="2" fill="none" d="M 546.038,163.787 A 473,473 0 0 1 546.038,398.213"/>
	<polygon fill="#000000" stroke-width="2" points="546.038,163.787 541.991,176.5 555.692,172.996"/>
	<text x="565.5" y="286.5" font-family="Times New Roman" font-size="20">0</text>
	<path stroke="blue" stroke-width="2" fill="none" d="M 570.229,418.866 A 30,30 0 1 1 570.229,454.134"/>
	<text x="629.5" y="442.5" font-family="Times New Roman" font-size="20">1</text>
	<polygon fill="#000000" stroke-width="2" points="570.229,454.134 575.226,466.504 583.539,455.063"/>
	<path stroke="blue" stroke-width="2" fill="none" d="M 566.844,102.232 A 30,30 0 1 1 572.642,137.02"/>
	<text x="630.5" y="114.5" font-family="Times New Roman" font-size="20">0</text>
	<polygon fill="#000000" stroke-width="2" points="572.642,137.02 579.605,148.401 585.923,135.748"/>
</svg>
