<?xml version="1.0" standalone="no"?>
<!DOCTYPE svg PUBLIC "-//W3C//DTD SVG 1.1//EN" "http://www.w3.org/Graphics/SVG/1.1/DTD/svg11.dtd">

<svg width="530" height="314" viewBox="0 0 530 314" preserveAspectRatio="none" version="1.1" xmlns="http://www.w3.org/2000/svg">
	<ellipse stroke="#004CB2" stroke-width="2" fill="none" cx="85.5" cy="172.5" rx="30" ry="30"/>
	<text x="76.5" y="178.5" font-family="Times New Roman" font-size="20">q&#8320;</text>
	<ellipse stroke="#004CB2" stroke-width="2" fill="none" cx="227.5" cy="78.5" rx="30" ry="30"/>
	<text x="220.5" y="84.5" font-family="Times New Roman" font-size="20">X</text>
	<ellipse stroke="#004CB2" stroke-width="2" fill="none" cx="189.5" cy="267.5" rx="30" ry="30"/>
	<text x="182.5" y="273.5" font-family="Times New Roman" font-size="20">Y</text>
	<ellipse stroke="#004CB2" stroke-width="2" fill="none" cx="361.5" cy="267.5" rx="30" ry="30"/>
	<text x="355.5" y="273.5" font-family="Times New Roman" font-size="20">Z</text>
	<ellipse stroke="#004CB2" stroke-width="2" fill="none" cx="497.5" cy="172.5" rx="30" ry="30"/>
	<ellipse stroke="#004CB2" stroke-width="2" fill="none" cx="497.5" cy="172.5" rx="21.515" ry="21.515"/>
	<polygon stroke="#004CB2" stroke-width="2" points="2.5,172.5 55.5,172.5"/>
	<polygon fill="#000000" stroke-width="2" points="55.5,172.5 44.186,165.429 44.186,179.571"/>
	<polygon stroke="#004CB2" stroke-width="2" points="110.516,155.94 202.484,95.06"/>
	<polygon fill="#000000" stroke-width="2" points="202.484,95.06 189.147,95.408 196.954,107.201"/>
	<text x="142.5" y="116.5" font-family="Times New Roman" font-size="20">a</text>
	<polygon stroke="#004CB2" stroke-width="2" points="107.65,192.733 167.35,247.267"/>
	<polygon fill="#000000" stroke-width="2" points="167.35,247.267 163.766,234.416 154.228,244.857"/>
	<text x="142.5" y="211.5" font-family="Times New Roman" font-size="20">a</text>
	<polygon stroke="#004CB2" stroke-width="2" points="115.5,172.5 467.5,172.5"/>
	<polygon fill="#000000" stroke-width="2" points="467.5,172.5 456.186,165.429 456.186,179.571"/>
	<text x="287.5" y="163.5" font-family="Times New Roman" font-size="20">&#949;</text>
	<path stroke="#004CB2" stroke-width="2" fill="none" d="M 216.89,255.347 A 178.912,178.912 0 0 1 334.11,255.347"/>
	<polygon fill="#000000" stroke-width="2" points="334.11,255.347 325.737,244.96 321.104,258.322"/>
	<text x="270.5" y="236.5" font-family="Times New Roman" font-size="20">b</text>
	<path stroke="#004CB2" stroke-width="2" fill="none" d="M 334.342,280.155 A 172.113,172.113 0 0 1 216.658,280.155"/>
	<polygon fill="#000000" stroke-width="2" points="216.658,280.155 224.873,290.668 229.708,277.378"/>
	<text x="271.5" y="311.5" font-family="Times New Roman" font-size="20">a</text>
	<polygon stroke="#004CB2" stroke-width="2" points="386.094,250.32 472.906,189.68"/>
	<polygon fill="#000000" stroke-width="2" points="472.906,189.68 459.582,190.362 467.68,201.955"/>
	<text x="434.5" y="240.5" font-family="Times New Roman" font-size="20">&#949;</text>
	<polygon stroke="#004CB2" stroke-width="2" points="255.832,88.364 469.168,162.636"/>
	<polygon fill="#000000" stroke-width="2" points="469.168,162.636 460.808,152.238 456.158,165.594"/>
	<text x="366.5" y="116.5" font-family="Times New Roman" font-size="20">&#949;</text>
	<path stroke="blue" stroke-width="2" fill="none" d="M 234.778,49.517 A 22.5,22.5 0 1 1 254.932,66.647"/>
	<text x="276.5" y="18.5" font-family="Times New Roman" font-size="20">a</text>
	<polygon fill="#000000" stroke-width="2" points="254.932,66.647 267.594,70.852 264.26,57.109"/>
</svg>
