<?xml version="1.0" standalone="no"?>
<!DOCTYPE svg PUBLIC "-//W3C//DTD SVG 1.1//EN" "http://www.w3.org/Graphics/SVG/1.1/DTD/svg11.dtd">

<svg width="530" height="213" viewBox="0 0 530 213" preserveAspectRatio="none" version="1.1" xmlns="http://www.w3.org/2000/svg">
	<ellipse stroke="#004CB2" stroke-width="2" fill="none" cx="85.5" cy="71.5" rx="30" ry="30"/>
	<text x="76.5" y="77.5" font-family="Times New Roman" font-size="20">q&#8320;</text>
	<ellipse stroke="#004CB2" stroke-width="2" fill="none" cx="189.5" cy="166.5" rx="30" ry="30"/>
	<text x="182.5" y="172.5" font-family="Times New Roman" font-size="20">Y</text>
	<ellipse stroke="#004CB2" stroke-width="2" fill="none" cx="361.5" cy="166.5" rx="30" ry="30"/>
	<text x="355.5" y="172.5" font-family="Times New Roman" font-size="20">Z</text>
	<ellipse stroke="#004CB2" stroke-width="2" fill="none" cx="497.5" cy="71.5" rx="30" ry="30"/>
	<ellipse stroke="#004CB2" stroke-width="2" fill="none" cx="497.5" cy="71.5" rx="21.515" ry="21.515"/>
	<polygon stroke="#004CB2" stroke-width="2" points="2.5,71.5 55.5,71.5"/>
	<polygon fill="#000000" stroke-width="2" points="55.5,71.5 44.186,64.429 44.186,78.571"/>
	<polygon stroke="#004CB2" stroke-width="2" points="107.65,91.733 167.35,146.267"/>
	<polygon fill="#000000" stroke-width="2" points="167.35,146.267 163.766,133.416 154.228,143.857"/>
	<text x="142.5" y="110.5" font-family="Times New Roman" font-size="20">a</text>
	<path stroke="#004CB2" stroke-width="2" fill="none" d="M 113.539,60.842 A 540.525,540.525 0 0 1 469.461,60.842"/>
	<polygon fill="#000000" stroke-width="2" points="469.461,60.842 461.106,50.44 456.45,63.794"/>
	<text x="267.5" y="21.5" font-family="Times New Roman" font-size="20">aa*+&#949;</text>
	<path stroke="#004CB2" stroke-width="2" fill="none" d="M 216.89,154.347 A 178.912,178.912 0 0 1 334.11,154.347"/>
	<polygon fill="#000000" stroke-width="2" points="334.11,154.347 325.737,143.96 321.104,157.322"/>
	<text x="270.5" y="135.5" font-family="Times New Roman" font-size="20">b</text>
	<path stroke="#004CB2" stroke-width="2" fill="none" d="M 334.342,179.155 A 172.113,172.113 0 0 1 216.658,179.155"/>
	<polygon fill="#000000" stroke-width="2" points="216.658,179.155 224.873,189.668 229.708,176.378"/>
	<text x="271.5" y="210.5" font-family="Times New Roman" font-size="20">a</text>
	<polygon stroke="#004CB2" stroke-width="2" points="386.094,149.32 472.906,88.68"/>
	<polygon fill="#000000" stroke-width="2" points="472.906,88.68 459.582,89.362 467.68,100.955"/>
	<text x="434.5" y="139.5" font-family="Times New Roman" font-size="20">&#949;</text>
</svg>
