<?xml version="1.0" standalone="no"?>
<!DOCTYPE svg PUBLIC "-//W3C//DTD SVG 1.1//EN" "http://www.w3.org/Graphics/SVG/1.1/DTD/svg11.dtd">

<svg width="799" height="601" viewBox="0 0 799 601" preserveAspectRatio="none" version="1.1" xmlns="http://www.w3.org/2000/svg">
	<ellipse stroke="#004CB2" stroke-width="2" fill="none" cx="152.5" cy="336.5" rx="30" ry="30"/>
	<ellipse stroke="#004CB2" stroke-width="2" fill="none" cx="347.5" cy="336.5" rx="30" ry="30"/>
	<ellipse stroke="#004CB2" stroke-width="2" fill="none" cx="545.5" cy="336.5" rx="30" ry="30"/>
	<ellipse stroke="#004CB2" stroke-width="2" fill="none" cx="545.5" cy="336.5" rx="21.515" ry="21.515"/>
	<polygon stroke="#004CB2" stroke-width="2" points="182.5,336.5 317.5,336.5"/>
	<polygon fill="#000000" stroke-width="2" points="317.5,336.5 306.186,329.429 306.186,343.571"/>
	<text x="245.5" y="327.5" font-family="Times New Roman" font-size="20">0</text>
	<polygon stroke="#004CB2" stroke-width="2" points="377.5,336.5 515.5,336.5"/>
	<polygon fill="#000000" stroke-width="2" points="515.5,336.5 504.186,329.429 504.186,343.571"/>
	<text x="434.5" y="327.5" font-family="Times New Roman" font-size="20">0,1</text>
	<polygon stroke="#004CB2" stroke-width="2" points="74.5,336.5 122.5,336.5"/>
	<polygon fill="#000000" stroke-width="2" points="122.5,336.5 111.186,329.429 111.186,343.571"/>
	<path stroke="blue" stroke-width="2" fill="none" d="M 139.275,309.703 A 22.5,22.5 0 1 1 165.725,309.703"/>
	<text x="140.5" y="260.5" font-family="Times New Roman" font-size="20">0,1</text>
	<polygon fill="#000000" stroke-width="2" points="165.725,309.703 178.096,304.706 166.655,296.394"/>
</svg>
