<?xml version="1.0" standalone="no"?>
<!DOCTYPE svg PUBLIC "-//W3C//DTD SVG 1.1//EN" "http://www.w3.org/Graphics/SVG/1.1/DTD/svg11.dtd">

<svg width="795" height="594" viewBox="0 0 795 594" preserveAspectRatio="none" version="1.1" xmlns="http://www.w3.org/2000/svg">
	<ellipse stroke="#004CB2" stroke-width="2" fill="none" cx="148.5" cy="280.5" rx="30" ry="30"/>
	<ellipse stroke="#004CB2" stroke-width="2" fill="none" cx="148.5" cy="280.5" rx="21.515" ry="21.515"/>
	<ellipse stroke="#004CB2" stroke-width="2" fill="none" cx="302.5" cy="280.5" rx="30" ry="30"/>
	<ellipse stroke="#004CB2" stroke-width="2" fill="none" cx="221.5" cy="197.5" rx="30" ry="30"/>
	<polygon stroke="#004CB2" stroke-width="2" points="67.5,280.5 118.5,280.5"/>
	<polygon fill="#000000" stroke-width="2" points="118.5,280.5 107.186,273.429 107.186,287.571"/>
	<polygon stroke="#004CB2" stroke-width="2" points="178.5,280.5 272.5,280.5"/>
	<polygon fill="#000000" stroke-width="2" points="272.5,280.5 261.186,273.429 261.186,287.571"/>
	<text x="221.5" y="271.5" font-family="Times New Roman" font-size="20">&#949;</text>
	<polygon stroke="#004CB2" stroke-width="2" points="281.547,259.03 242.453,218.97"/>
	<polygon fill="#000000" stroke-width="2" points="242.453,218.97 245.294,232.006 255.415,222.129"/>
	<text x="267.5" y="230.5" font-family="Times New Roman" font-size="20">0</text>
	<polygon stroke="#004CB2" stroke-width="2" points="201.687,220.027 168.313,257.973"/>
	<polygon fill="#000000" stroke-width="2" points="168.313,257.973 181.094,254.148 170.475,244.808"/>
	<text x="170.5" y="230.5" font-family="Times New Roman" font-size="20">&#949;</text>
	<path stroke="blue" stroke-width="2" fill="none" d="M 192.575,189.994 A 22.5,22.5 0 1 1 209.864,169.976"/>
	<text x="139.5" y="144.5" font-family="Times New Roman" font-size="20">0,1</text>
	<polygon fill="#000000" stroke-width="2" points="209.864,169.976 214.168,157.347 200.398,160.573"/>
</svg>
