<?xml version="1.0" standalone="no"?>
<!DOCTYPE svg PUBLIC "-//W3C//DTD SVG 1.1//EN" "http://www.w3.org/Graphics/SVG/1.1/DTD/svg11.dtd">

<svg width="590" height="293" viewBox="0 0 590 293" preserveAspectRatio="none" version="1.1" xmlns="http://www.w3.org/2000/svg">
	<ellipse stroke="#004CB2" stroke-width="2" fill="none" cx="101.5" cy="144.5" rx="30" ry="30"/>
	<text x="94.5" y="150.5" font-family="Times New Roman" font-size="20">A</text>
	<ellipse stroke="#004CB2" stroke-width="2" fill="none" cx="305.5" cy="33.5" rx="30" ry="30"/>
	<text x="298.5" y="39.5" font-family="Times New Roman" font-size="20">B</text>
	<ellipse stroke="#004CB2" stroke-width="2" fill="none" cx="499.5" cy="144.5" rx="30" ry="30"/>
	<text x="492.5" y="150.5" font-family="Times New Roman" font-size="20">D</text>
	<ellipse stroke="#004CB2" stroke-width="2" fill="none" cx="499.5" cy="144.5" rx="21.515" ry="21.515"/>
	<ellipse stroke="#004CB2" stroke-width="2" fill="none" cx="305.5" cy="260.5" rx="30" ry="30"/>
	<text x="298.5" y="266.5" font-family="Times New Roman" font-size="20">C</text>
	<polygon stroke="#004CB2" stroke-width="2" points="127.852,130.162 279.148,47.838"/>
	<polygon fill="#000000" stroke-width="2" points="279.148,47.838 265.831,47.035 272.59,59.457"/>
	<text x="188.5" y="79.5" font-family="Times New Roman" font-size="20">0</text>
	<polygon stroke="#004CB2" stroke-width="2" points="127.579,159.329 279.421,245.671"/>
	<polygon fill="#000000" stroke-width="2" points="279.421,245.671 273.082,233.932 266.091,246.225"/>
	<text x="188.5" y="223.5" font-family="Times New Roman" font-size="20">1</text>
	<path stroke="#004CB2" stroke-width="2" fill="none" d="M 332.918,45.672 A 952.16,952.16 0 0 1 475.112,127.031"/>
	<polygon fill="#000000" stroke-width="2" points="475.112,127.031 469.839,114.776 461.786,126.401"/>
	<text x="410.5" y="74.5" font-family="Times New Roman" font-size="20">0</text>
	<polygon stroke="#004CB2" stroke-width="2" points="331.248,245.104 473.752,159.896"/>
	<polygon fill="#000000" stroke-width="2" points="473.752,159.896 460.413,159.633 467.67,171.771"/>
	<text x="407.5" y="223.5" font-family="Times New Roman" font-size="20">1</text>
	<path stroke="blue" stroke-width="2" fill="none" d="M 528.453,151.898 A 22.5,22.5 0 1 1 511.239,171.981"/>
	<text x="556.5" y="208.5" font-family="Times New Roman" font-size="20">0,1</text>
	<polygon fill="#000000" stroke-width="2" points="511.239,171.981 506.982,184.625 520.739,181.348"/>
	<path stroke="blue" stroke-width="2" fill="none" d="M 109.415,173.316 A 22.5,22.5 0 1 1 83.443,168.31"/>
	<text x="66.5" y="233.5" font-family="Times New Roman" font-size="20">0,1</text>
	<polygon fill="#000000" stroke-width="2" points="83.443,168.31 70.35,170.875 80.011,181.203"/>
	<polygon stroke="blue" stroke-width="2" points="2.5,144.5 71.5,144.5"/>
	<polygon fill="#000000" stroke-width="2" points="71.5,144.5 60.186,137.429 60.186,151.571"/>
</svg>
