<?xml version="1.0" standalone="no"?>
<!DOCTYPE svg PUBLIC "-//W3C//DTD SVG 1.1//EN" "http://www.w3.org/Graphics/SVG/1.1/DTD/svg11.dtd">

<svg width="677" height="165" viewBox="0 0 677 165" preserveAspectRatio="none" version="1.1" xmlns="http://www.w3.org/2000/svg">
	<ellipse stroke="#004CB2" stroke-width="2" fill="none" cx="40.5" cy="93.5" rx="37" ry="37"/>
	<text x="26.5" y="99.5" font-family="Times New Roman" font-size="20">flee</text>
	<ellipse stroke="#004CB2" stroke-width="2" fill="none" cx="247.5" cy="91.5" rx="37" ry="37"/>
	<text x="226.5" y="97.5" font-family="Times New Roman" font-size="20">roam</text>
	<ellipse stroke="#004CB2" stroke-width="2" fill="none" cx="445.5" cy="91.5" rx="37" ry="37"/>
	<text x="423.5" y="97.5" font-family="Times New Roman" font-size="20">chase</text>
	<ellipse stroke="#004CB2" stroke-width="2" fill="none" cx="637.5" cy="91.5" rx="37" ry="37"/>
	<text x="619.5" y="97.5" font-family="Times New Roman" font-size="20">fight</text>
	<polygon stroke="#004CB2" stroke-width="2" points="247.5,2.5 247.5,54.5"/>
	<polygon fill="#000000" stroke-width="2" points="247.5,54.5 254.571,43.186 240.429,43.186"/>
	<path stroke="#004CB2" stroke-width="2" fill="none" d="M 72.593,75.217 A 180.508,180.508 0 0 1 215.06,73.841"/>
	<polygon fill="#000000" stroke-width="2" points="72.593,75.217 85.798,77.122 80.091,64.182"/>
	<text x="97.5" y="50.5" font-family="Times New Roman" font-size="20">find dragon</text>
	<path stroke="#004CB2" stroke-width="2" fill="none" d="M 280.117,74.175 A 177.243,177.243 0 0 1 412.883,74.175"/>
	<polygon fill="#000000" stroke-width="2" points="412.883,74.175 405.041,63.381 399.744,76.494"/>
	<text x="298.5" y="52.5" font-family="Times New Roman" font-size="20">find peasant</text>
	<path stroke="#004CB2" stroke-width="2" fill="none" d="M 478.256,74.445 A 173.397,173.397 0 0 1 604.744,74.445"/>
	<polygon fill="#000000" stroke-width="2" points="604.744,74.445 596.789,63.735 591.631,76.903"/>
	<text x="506.5" y="53.5" font-family="Times New Roman" font-size="20">get close</text>
	<path stroke="#004CB2" stroke-width="2" fill="none" d="M 609.014,114.916 A 130.062,130.062 0 0 1 473.986,114.916"/>
	<polygon fill="#000000" stroke-width="2" points="473.986,114.916 479.986,126.833 487.327,114.745"/>
	<text x="515.5" y="154.5" font-family="Times New Roman" font-size="20">get far</text>
	<path stroke="#004CB2" stroke-width="2" fill="none" d="M 416.939,114.84 A 135.148,135.148 0 0 1 276.061,114.84"/>
	<polygon fill="#000000" stroke-width="2" points="276.061,114.84 282.031,126.771 289.402,114.702"/>
	<text x="297.5" y="155.5" font-family="Times New Roman" font-size="20">lose sight of</text>
	<path stroke="#004CB2" stroke-width="2" fill="none" d="M 218.519,114.344 A 146.571,146.571 0 0 1 69.917,115.78"/>
	<polygon fill="#000000" stroke-width="2" points="218.519,114.344 205.179,114.113 212.466,126.233"/>
	<text x="117.5" y="156.5" font-family="Times New Roman" font-size="20">escape</text>
</svg>
