<?xml version="1.0" standalone="no"?>
<!DOCTYPE svg PUBLIC "-//W3C//DTD SVG 1.1//EN" "http://www.w3.org/Graphics/SVG/1.1/DTD/svg11.dtd">

<svg width="467" height="412" viewBox="0 0 467 412" preserveAspectRatio="none" version="1.1" xmlns="http://www.w3.org/2000/svg">
	<ellipse stroke="#004CB2" stroke-width="2" fill="none" cx="114.5" cy="63.5" rx="41" ry="41"/>
	<text x="97.5" y="69.5" font-family="Times New Roman" font-size="20">A,X</text>
	<ellipse stroke="#004CB2" stroke-width="2" fill="none" cx="114.5" cy="63.5" rx="32.515" ry="32.515"/>
	<ellipse stroke="#004CB2" stroke-width="2" fill="none" cx="415.5" cy="63.5" rx="41" ry="41"/>
	<text x="398.5" y="69.5" font-family="Times New Roman" font-size="20">A,Y</text>
	<ellipse stroke="#004CB2" stroke-width="2" fill="none" cx="114.5" cy="359.5" rx="41" ry="41"/>
	<text x="98.5" y="365.5" font-family="Times New Roman" font-size="20">B,X</text>
	<ellipse stroke="#004CB2" stroke-width="2" fill="none" cx="415.5" cy="359.5" rx="41" ry="41"/>
	<text x="399.5" y="365.5" font-family="Times New Roman" font-size="20">B,Y</text>
	<polygon stroke="#004CB2" stroke-width="2" points="2.5,63.5 73.5,63.5"/>
	<polygon fill="#000000" stroke-width="2" points="73.5,63.5 62.186,56.429 62.186,70.571"/>
	<path stroke="#004CB2" stroke-width="2" fill="none" d="M 152.66,48.566 A 361.188,361.188 0 0 1 377.34,48.566"/>
	<polygon fill="#000000" stroke-width="2" points="377.34,48.566 368.787,38.327 364.388,51.767"/>
	<text x="259.5" y="21.5" font-family="Times New Roman" font-size="20">1</text>
	<path stroke="#004CB2" stroke-width="2" fill="none" d="M 379.426,82.908 A 280.326,280.326 0 0 1 150.574,82.908"/>
	<polygon fill="#000000" stroke-width="2" points="150.574,82.908 158.016,93.982 163.788,81.071"/>
	<text x="260.5" y="128.5" font-family="Times New Roman" font-size="20">1</text>
	<path stroke="#004CB2" stroke-width="2" fill="none" d="M 97.86,322.06 A 318.971,318.971 0 0 1 97.86,100.94"/>
	<polygon fill="#000000" stroke-width="2" points="97.86,322.06 100.571,308.996 87.305,313.898"/>
	<text x="63.5" y="217.5" font-family="Times New Roman" font-size="20">0</text>
	<path stroke="#004CB2" stroke-width="2" fill="none" d="M 128.181,102.129 A 386,386 0 0 1 128.181,320.871"/>
	<polygon fill="#000000" stroke-width="2" points="128.181,102.129 124.606,114.983 138.168,110.976"/>
	<text x="149.5" y="217.5" font-family="Times New Roman" font-size="20">0</text>
	<path stroke="#004CB2" stroke-width="2" fill="none" d="M 153.629,347.305 A 440.541,440.541 0 0 1 376.371,347.305"/>
	<polygon fill="#000000" stroke-width="2" points="376.371,347.305 367.212,337.604 363.637,351.287"/>
	<text x="259.5" y="323.5" font-family="Times New Roman" font-size="20">1</text>
	<path stroke="#004CB2" stroke-width="2" fill="none" d="M 376.841,373.1 A 395.803,395.803 0 0 1 153.159,373.1"/>
	<polygon fill="#000000" stroke-width="2" points="153.159,373.1 162.014,383.079 166.01,369.514"/>
	<text x="259.5" y="410.5" font-family="Times New Roman" font-size="20">1</text>
	<path stroke="#004CB2" stroke-width="2" fill="none" d="M 399.801,321.652 A 337.518,337.518 0 0 1 399.801,101.348"/>
	<polygon fill="#000000" stroke-width="2" points="399.801,321.652 402.793,308.65 389.425,313.265"/>
	<text x="366.5" y="217.5" font-family="Times New Roman" font-size="20">0</text>
	<path stroke="#004CB2" stroke-width="2" fill="none" d="M 430.076,101.798 A 362.833,362.833 0 0 1 430.076,321.202"/>
	<polygon fill="#000000" stroke-width="2" points="430.076,101.798 426.756,114.72 440.236,110.445"/>
	<text x="452.5" y="217.5" font-family="Times New Roman" font-size="20">0</text>
</svg>
