<?xml version="1.0" standalone="no"?>
<!DOCTYPE svg PUBLIC "-//W3C//DTD SVG 1.1//EN" "http://www.w3.org/Graphics/SVG/1.1/DTD/svg11.dtd">

<svg width="690" height="421" viewBox="0 0 690 421" preserveAspectRatio="none" version="1.1" xmlns="http://www.w3.org/2000/svg">
	<ellipse stroke="#004CB2" stroke-width="2" fill="none" cx="169.5" cy="86.5" rx="30" ry="30"/>
	<text x="162.5" y="92.5" font-family="Times New Roman" font-size="20">A</text>
	<ellipse stroke="#004CB2" stroke-width="2" fill="none" cx="502.5" cy="86.5" rx="30" ry="30"/>
	<text x="495.5" y="92.5" font-family="Times New Roman" font-size="20">B</text>
	<ellipse stroke="#004CB2" stroke-width="2" fill="none" cx="341.5" cy="321.5" rx="30" ry="30"/>
	<text x="334.5" y="327.5" font-family="Times New Roman" font-size="20">D</text>
	<ellipse stroke="#004CB2" stroke-width="2" fill="none" cx="657.5" cy="321.5" rx="30" ry="30"/>
	<text x="650.5" y="327.5" font-family="Times New Roman" font-size="20">C</text>
	<ellipse stroke="#004CB2" stroke-width="2" fill="none" cx="33.5" cy="321.5" rx="30" ry="30"/>
	<text x="24.5" y="327.5" font-family="Times New Roman" font-size="20">ha</text>
	<ellipse stroke="#004CB2" stroke-width="2" fill="none" cx="33.5" cy="321.5" rx="21.515" ry="21.515"/>
	<polygon stroke="#004CB2" stroke-width="2" points="94.5,86.5 139.5,86.5"/>
	<polygon fill="#000000" stroke-width="2" points="139.5,86.5 128.186,79.429 128.186,93.571"/>
	<polygon stroke="#004CB2" stroke-width="2" points="199.5,86.5 472.5,86.5"/>
	<polygon fill="#000000" stroke-width="2" points="472.5,86.5 461.186,79.429 461.186,93.571"/>
	<text x="317.5" y="77.5" font-family="Times New Roman" font-size="20">0&#916;R</text>
	<polygon stroke="#004CB2" stroke-width="2" points="519.018,111.543 640.982,296.457"/>
	<polygon fill="#000000" stroke-width="2" points="640.982,296.457 640.656,283.119 628.85,290.906"/>
	<text x="586.5" y="196.5" font-family="Times New Roman" font-size="20">&#916;&#916;L</text>
	<polygon stroke="#004CB2" stroke-width="2" points="627.5,321.5 371.5,321.5"/>
	<polygon fill="#000000" stroke-width="2" points="371.5,321.5 382.814,328.571 382.814,314.429"/>
	<text x="481.5" y="312.5" font-family="Times New Roman" font-size="20">1&#916;L</text>
	<polygon stroke="#004CB2" stroke-width="2" points="323.781,297.291 187.219,110.709"/>
	<polygon fill="#000000" stroke-width="2" points="187.219,110.709 188.195,124.014 199.607,115.662"/>
	<text x="261.5" y="196.5" font-family="Times New Roman" font-size="20">&#916;&#916;R</text>
	<polygon stroke="#004CB2" stroke-width="2" points="154.473,112.465 48.527,295.535"/>
	<polygon fill="#000000" stroke-width="2" points="48.527,295.535 60.314,289.284 48.074,282.201"/>
	<text x="108.5" y="222.5" font-family="Times New Roman" font-size="20">&#916;&#916;S</text>
	<path stroke="blue" stroke-width="2" fill="none" d="M 350.497,349.996 A 22.5,22.5 0 1 1 324.354,345.975"/>
	<text x="278.5" y="413.5" font-family="Times New Roman" font-size="20">00L, 11L</text>
	<polygon fill="#000000" stroke-width="2" points="324.354,345.975 311.367,349.032 321.412,358.988"/>
	<path stroke="blue" stroke-width="2" fill="none" d="M 505.729,56.792 A 22.5,22.5 0 1 1 528.044,70.993"/>
	<text x="543.5" y="20.5" font-family="Times New Roman" font-size="20">00R,11R</text>
	<polygon fill="#000000" stroke-width="2" points="528.044,70.993 541.164,73.419 535.974,60.263"/>
</svg>
